<?xml version="1.0" ?><svg viewBox="0 0 32 32" xmlns="http://www.w3.org/2000/svg"><defs><style>.cls-1{fill:#2893ea;}.cls-2{fill:#d9e1e8;}</style></defs><title/><g id="Temperature"><path class="cls-1" d="M29,15H25.41L28,12.46a1,1,0,0,0-1.41-1.41L24,13.59V10a1,1,0,0,0-2,0v3.59l-2.54-2.54a1,1,0,0,0-1.41,1.41L20.59,15H17a1,1,0,0,0,0,2h3.59l-2.54,2.54a1,1,0,0,0,0,1.41,1,1,0,0,0,.71.29,1,1,0,0,0,.7-.29L22,18.41V22a1,1,0,0,0,2,0V18.41L26.54,21a1,1,0,0,0,.7.29A1,1,0,0,0,28,21a1,1,0,0,0,0-1.41L25.41,17H29a1,1,0,0,0,0-2Z"/><path class="cls-1" d="M12,19.53V6A4,4,0,0,0,4,6V19.53A6,6,0,0,0,6.82,29.89,6.62,6.62,0,0,0,8,30a6,6,0,0,0,4-10.47Z"/><path class="cls-2" d="M9,22.28V17a1,1,0,0,0-2,0v5.28a2,2,0,1,0,2,0Z"/></g></svg>